<svg xmlns="http://www.w3.org/2000/svg" viewBox="0 0 100 100" width="100" height="100">
  <defs>
    <linearGradient id="gradient1" x1="0%" y1="0%" x2="100%" y2="100%">
      <stop offset="0%" stop-color="#4b89f5" />
      <stop offset="100%" stop-color="#3355d8" />
    </linearGradient>
    <linearGradient id="gradient2" x1="0%" y1="0%" x2="100%" y2="100%">
      <stop offset="0%" stop-color="#f472b6" />
      <stop offset="100%" stop-color="#db2777" />
    </linearGradient>
  </defs>
  <circle cx="50" cy="50" r="48" fill="white" />
  <g transform="translate(25, 25)">
    <path d="M10,0 L40,0 C45.5,0 50,4.5 50,10 L50,40 C50,45.5 45.5,50 40,50 L10,50 C4.5,50 0,45.5 0,40 L0,10 C0,4.5 4.5,0 10,0 Z" fill="url(#gradient1)" />
    <path d="M20,10 L30,10 C35.5,10 40,14.5 40,20 L40,30 C40,35.5 35.5,40 30,40 L20,40 C14.5,40 10,35.5 10,30 L10,20 C10,14.5 14.5,10 20,10 Z" fill="white" opacity="0.3" />
    <path d="M15,15 L35,15 C37.8,15 40,17.2 40,20 L40,30 C40,32.8 37.8,35 35,35 L15,35 C12.2,35 10,32.8 10,30 L10,20 C10,17.2 12.2,15 15,15 Z" fill="url(#gradient2)" />
    <circle cx="25" cy="25" r="5" fill="white" />
  </g>
</svg>